<?xml version="1.0" standalone="no"?>
<!DOCTYPE svg PUBLIC "-//W3C//DTD SVG 20010904//EN"
 "http://www.w3.org/TR/2001/REC-SVG-20010904/DTD/svg10.dtd">
<svg version="1.0" xmlns="http://www.w3.org/2000/svg"
 width="1024.000000pt" height="1024.000000pt" viewBox="0 0 1024.000000 1024.000000"
 preserveAspectRatio="xMidYMid meet">

<g transform="translate(0.000000,1024.000000) scale(0.100000,-0.100000)"
fill="#000000" stroke="none">
<path d="M0 5120 l0 -5120 5120 0 5120 0 0 5120 0 5120 -5120 0 -5120 0 0
-5120z m2760 1126 c404 -112 712 -442 791 -849 85 -435 -105 -881 -479 -1125
-547 -356 -1280 -158 -1570 423 -87 173 -115 298 -115 500 0 129 4 163 25 246
36 132 78 229 146 334 163 253 408 420 707 485 133 29 362 22 495 -14z m2080
-838 c0 -542 -4 -580 -60 -694 -38 -78 -120 -156 -206 -196 -86 -40 -226 -50
-320 -23 -116 33 -218 122 -273 239 -30 63 -58 173 -46 184 3 3 62 8 130 10
l125 4 0 -24 c0 -13 12 -49 28 -78 34 -68 88 -100 169 -100 101 0 162 47 182
140 7 33 11 225 11 540 l0 490 130 0 130 0 0 -492z m1230 367 l0 -125 -320 0
-320 0 0 -165 0 -165 280 0 280 0 0 -122 0 -123 -280 0 -280 0 0 -167 0 -168
330 0 330 0 0 -125 0 -125 -460 0 -460 0 0 705 0 705 450 0 450 0 0 -125z
m602 -201 l3 -325 269 325 269 326 164 0 165 0 -59 -67 c-33 -38 -151 -176
-263 -308 -112 -132 -212 -250 -222 -261 l-19 -22 242 -313 c133 -173 264
-342 291 -376 l50 -63 -159 0 -158 1 -225 286 c-124 157 -228 290 -231 295 -3
5 -31 -17 -62 -49 l-57 -58 0 -237 0 -238 -130 0 -130 0 -2 705 -3 705 132 0
133 0 2 -326z m1396 1 c-2 -179 -3 -325 -2 -325 1 0 122 146 270 325 l269 325
164 0 164 0 -20 -22 c-97 -109 -533 -629 -533 -637 0 -5 128 -175 285 -376
157 -202 285 -369 285 -371 0 -2 -69 -4 -152 -4 l-153 0 -232 294 -233 295
-55 -58 -55 -58 0 -236 0 -237 -135 0 -135 0 0 705 0 705 135 0 136 0 -3 -325z"/>
<path d="M2394 6139 c-419 -30 -784 -368 -859 -796 -45 -256 22 -528 182 -736
250 -325 656 -453 1048 -330 308 97 552 357 642 684 14 50 18 101 17 234 0
155 -3 178 -27 258 -52 168 -136 304 -264 428 -200 193 -444 278 -739 258z
m413 -786 c-4 -498 -5 -506 -63 -613 -38 -71 -130 -153 -201 -181 -83 -33
-252 -33 -334 -1 -90 36 -175 121 -215 217 l-14 35 110 55 c60 30 114 55 119
55 4 0 11 -13 14 -29 8 -37 58 -95 97 -111 18 -7 55 -11 91 -8 56 4 65 8 95
40 18 20 37 53 43 75 7 23 11 164 11 363 l0 325 -142 -3 c-134 -4 -141 -3
-134 14 4 11 26 65 48 122 l41 102 219 0 219 0 -4 -457z"/>
</g>
</svg>
